# xmcd
#
# Track frame offsets: 
#        150
#        6652
#        22462
#        39667
#        54982
#        71882
#        90647
#        111490
#        131065
#        149505
#        167685
#        187570
#        202547
#
# Disc length: 2954 seconds
#
# Revision: 3
# Processed by: cddbd v1.5.2PL0 Copyright (c) Steve Scherf et al.
# Submitted via: ExactAudioCopyFreeDBPlugin 1.0
#
DISCID=bb0b880d
DTITLE=Queen Pen - My Melody
DYEAR=1997
DGENRE=Rap
TTITLE0=Intro
TTITLE1=Queen of the Click
TTITLE2=Man Behind The Music Feat. Teddy Riley and Markell Riley
TTITLE3=All My Love Feat. Eric Williams
TTITLE4=My Melody
TTITLE5=Party Ain't A Party Feat. Mr. Cheeks, Markell Riley, and Nutta B
TTITLE5=utta
TTITLE6=It's True Feat. Richard Sities
TTITLE7=The Set Up
TTITLE8=Get Away Feat. Teddy Riley and Chauncey Hannibal
TTITLE9=I'm Gon Blow Up Feat. Ron Isley
TTITLE10=Girlfriend Feat. Meshell N'Degeocello
TTITLE11=No Hooks
TTITLE12=So Many Ways
EXTD=www.RapMusicGuide.com
EXTT0=
EXTT1=
EXTT2=
EXTT3=
EXTT4=
EXTT5=
EXTT6=
EXTT7=
EXTT8=
EXTT9=
EXTT10=
EXTT11=
EXTT12=
PLAYORDER=
